HIERARCHY
ROOT Hips
{
	OFFSET -3.536723 1.218618 0.195575
	CHANNELS 6 Xposition Yposition Zposition Zrotation Yrotation Xrotation 
	JOINT Spine
	{
		OFFSET -0.000002 8.340420 -2.714018
		CHANNELS 3 Zrotation Yrotation Xrotation
		JOINT Spine1
		{
			OFFSET -0.000014 11.909965 -2.100098
			CHANNELS 3 Zrotation Yrotation Xrotation
			JOINT Spine2
			{
				OFFSET 0.000008 12.047680 -1.054067
				CHANNELS 3 Zrotation Yrotation Xrotation
				JOINT Spine3
				{
					OFFSET 0.000005 12.093728 0.000015
					CHANNELS 3 Zrotation Yrotation Xrotation
					JOINT Neck
					{
						OFFSET -0.000051 15.549085 1.554887
						CHANNELS 3 Zrotation Yrotation Xrotation
						JOINT Neck1
						{
							OFFSET 0.000054 4.687355 0.410102
							CHANNELS 3 Zrotation Yrotation Xrotation
							JOINT Head
							{
								OFFSET 0.000082 4.633768 0.817080
								CHANNELS 3 Zrotation Yrotation Xrotation
								JOINT HeadEnd
								{
									OFFSET 0.000022 9.727753 -0.000033
									CHANNELS 3 Zrotation Yrotation Xrotation
									End Site
									{
										OFFSET 0.000000 0.000000 0.000000
									}
								}
							}
						}
					}
					JOINT RightShoulder
					{
						OFFSET 0.000040 11.106496 6.072605
						CHANNELS 3 Zrotation Yrotation Xrotation
						JOINT RightArm
						{
							OFFSET -19.427918 0.000080 0.000009
							CHANNELS 3 Zrotation Yrotation Xrotation
							JOINT RightForeArm
							{
								OFFSET -29.350708 -0.000008 0.000010
								CHANNELS 3 Zrotation Yrotation Xrotation
								JOINT RightHand
								{
									OFFSET -27.018055 -0.000019 0.000053
									CHANNELS 3 Zrotation Yrotation Xrotation
									JOINT RightHandMiddle1
									{
										OFFSET -9.244032 -0.000030 0.000030
										CHANNELS 3 Zrotation Yrotation Xrotation
										JOINT RightHandMiddle2
										{
											OFFSET -4.870022 -0.000005 -0.000015
											CHANNELS 3 Zrotation Yrotation Xrotation
											JOINT RightHandMiddle3
											{
												OFFSET -3.169068 -0.000001 0.000022
												CHANNELS 3 Zrotation Yrotation Xrotation
												JOINT RightHandMiddle4
												{
													OFFSET -1.888363 -0.000006 0.000008
													CHANNELS 3 Zrotation Yrotation Xrotation
													End Site
													{
														OFFSET 0.000000 0.000000 0.000000
													}
												}
											}
										}
									}
									JOINT RightHandRing
									{
										OFFSET -0.250020 -0.250013 -0.956450
										CHANNELS 3 Zrotation Yrotation Xrotation
										JOINT RightHandRing1
										{
											OFFSET -8.140231 -0.000014 -0.734619
											CHANNELS 3 Zrotation Yrotation Xrotation
											JOINT RightHandRing2
											{
												OFFSET -4.501556 -0.000022 -0.406249
												CHANNELS 3 Zrotation Yrotation Xrotation
												JOINT RightHandRing3
												{
													OFFSET -3.068841 0.000016 -0.276962
													CHANNELS 3 Zrotation Yrotation Xrotation
													JOINT RightHandRing4
													{
														OFFSET -1.869938 -0.000021 -0.168774
														CHANNELS 3 Zrotation Yrotation Xrotation
														End Site
														{
															OFFSET 0.000000 0.000000 0.000000
														}
													}
												}
											}
										}
										JOINT RightHandPinky
										{
											OFFSET -0.163049 -0.249986 -0.975110
											CHANNELS 3 Zrotation Yrotation Xrotation
											JOINT RightHandPinky1
											{
												OFFSET -6.681433 0.000024 -1.494114
												CHANNELS 3 Zrotation Yrotation Xrotation
												JOINT RightHandPinky2
												{
													OFFSET -3.580951 -0.000001 -0.800812
													CHANNELS 3 Zrotation Yrotation Xrotation
													JOINT RightHandPinky3
													{
														OFFSET -2.276523 -0.000028 -0.509087
														CHANNELS 3 Zrotation Yrotation Xrotation
														JOINT RightHandPinky4
														{
															OFFSET -1.690350 -0.000031 -0.377982
															CHANNELS 3 Zrotation Yrotation Xrotation
															End Site
															{
																OFFSET 0.000000 0.000000 0.000000
															}
														}
													}
												}
											}
										}
									}
									JOINT RightHandIndex
									{
										OFFSET -0.250002 -0.250007 0.956492
										CHANNELS 3 Zrotation Yrotation Xrotation
										JOINT RightHandIndex1
										{
											OFFSET -8.934102 0.000046 0.806269
											CHANNELS 3 Zrotation Yrotation Xrotation
											JOINT RightHandIndex2
											{
												OFFSET -4.694651 -0.000030 0.423707
												CHANNELS 3 Zrotation Yrotation Xrotation
												JOINT RightHandIndex3
												{
													OFFSET -2.811719 0.000009 0.253759
													CHANNELS 3 Zrotation Yrotation Xrotation
													JOINT RightHandIndex4
													{
														OFFSET -1.709923 -0.000023 0.154299
														CHANNELS 3 Zrotation Yrotation Xrotation
														End Site
														{
															OFFSET 0.000000 0.000000 0.000000
														}
													}
												}
											}
										}
										JOINT RightHandThumb1
										{
											OFFSET -0.163002 -0.750040 0.975090
											CHANNELS 3 Zrotation Yrotation Xrotation
											JOINT RightHandThumb2
											{
												OFFSET -5.411669 0.835518 2.244671
												CHANNELS 3 Zrotation Yrotation Xrotation
												JOINT RightHandThumb3
												{
													OFFSET -3.567123 0.550751 1.479601
													CHANNELS 3 Zrotation Yrotation Xrotation
													JOINT RightHandThumb4
													{
														OFFSET -2.150527 0.332043 0.892044
														CHANNELS 3 Zrotation Yrotation Xrotation
														End Site
														{
															OFFSET 0.000000 0.000000 0.000000
														}
													}
												}
											}
										}
									}
								}
							}
						}
					}
					JOINT LeftShoulder
					{
						OFFSET 0.000025 11.106492 6.072675
						CHANNELS 3 Zrotation Yrotation Xrotation
						JOINT LeftArm
						{
							OFFSET 19.427847 -0.000013 -0.000043
							CHANNELS 3 Zrotation Yrotation Xrotation
							JOINT LeftForeArm
							{
								OFFSET 29.350741 0.000052 0.000027
								CHANNELS 3 Zrotation Yrotation Xrotation
								JOINT LeftHand
								{
									OFFSET 27.018038 -0.000030 -0.000007
									CHANNELS 3 Zrotation Yrotation Xrotation
									JOINT LeftHandMiddle1
									{
										OFFSET 9.402647 0.000029 -0.000020
										CHANNELS 3 Zrotation Yrotation Xrotation
										JOINT LeftHandMiddle2
										{
											OFFSET 4.950125 -0.000006 0.000000
											CHANNELS 3 Zrotation Yrotation Xrotation
											JOINT LeftHandMiddle3
											{
												OFFSET 3.211963 -0.000013 0.000000
												CHANNELS 3 Zrotation Yrotation Xrotation
												JOINT LeftHandMiddle4
												{
													OFFSET 1.927613 -0.000007 -0.000005
													CHANNELS 3 Zrotation Yrotation Xrotation
													End Site
													{
														OFFSET 0.000000 0.000000 0.000000
													}
												}
											}
										}
									}
									JOINT LeftHandRing
									{
										OFFSET 0.249978 -0.250030 -0.906130
										CHANNELS 3 Zrotation Yrotation Xrotation
										JOINT LeftHandRing1
										{
											OFFSET 8.286079 -0.000004 -0.747785
											CHANNELS 3 Zrotation Yrotation Xrotation
											JOINT LeftHandRing2
											{
												OFFSET 4.585517 0.000004 -0.413812
												CHANNELS 3 Zrotation Yrotation Xrotation
												JOINT LeftHandRing3
												{
													OFFSET 3.124448 -0.000013 -0.281940
													CHANNELS 3 Zrotation Yrotation Xrotation
													JOINT LeftHandRing4
													{
														OFFSET 1.908770 -0.000014 -0.172248
														CHANNELS 3 Zrotation Yrotation Xrotation
														End Site
														{
															OFFSET 0.000000 0.000000 0.000000
														}
													}
												}
											}
										}
										JOINT LeftHandPinky
										{
											OFFSET 0.167510 -0.249995 -0.924936
											CHANNELS 3 Zrotation Yrotation Xrotation
											JOINT LeftHandPinky1
											{
												OFFSET 6.823514 0.000018 -1.525867
												CHANNELS 3 Zrotation Yrotation Xrotation
												JOINT LeftHandPinky2
												{
													OFFSET 3.642818 -0.000032 -0.814608
													CHANNELS 3 Zrotation Yrotation Xrotation
													JOINT LeftHandPinky3
													{
														OFFSET 2.333102 0.000012 -0.521773
														CHANNELS 3 Zrotation Yrotation Xrotation
														JOINT LeftHandPinky4
														{
															OFFSET 1.725431 0.000014 -0.385872
															CHANNELS 3 Zrotation Yrotation Xrotation
															End Site
															{
																OFFSET 0.000000 0.000000 0.000000
															}
														}
													}
												}
											}
										}
									}
									JOINT LeftHandIndex
									{
										OFFSET 0.249980 -0.249988 0.906155
										CHANNELS 3 Zrotation Yrotation Xrotation
										JOINT LeftHandIndex1
										{
											OFFSET 9.087951 -0.000020 0.820175
											CHANNELS 3 Zrotation Yrotation Xrotation
											JOINT LeftHandIndex2
											{
												OFFSET 4.776549 -0.000022 0.431053
												CHANNELS 3 Zrotation Yrotation Xrotation
												JOINT LeftHandIndex3
												{
													OFFSET 2.865125 -0.000008 0.258594
													CHANNELS 3 Zrotation Yrotation Xrotation
													JOINT LeftHandIndex4
													{
														OFFSET 1.745456 0.000002 0.157485
														CHANNELS 3 Zrotation Yrotation Xrotation
														End Site
														{
															OFFSET 0.000000 0.000000 0.000000
														}
													}
												}
											}
										}
										JOINT LeftHandThumb1
										{
											OFFSET 0.167561 -0.749964 0.924971
											CHANNELS 3 Zrotation Yrotation Xrotation
											JOINT LeftHandThumb2
											{
												OFFSET 5.551492 0.857121 2.302660
												CHANNELS 3 Zrotation Yrotation Xrotation
												JOINT LeftHandThumb3
												{
													OFFSET 3.625632 0.559748 1.503894
													CHANNELS 3 Zrotation Yrotation Xrotation
													JOINT LeftHandThumb4
													{
														OFFSET 2.195254 0.338934 0.910573
														CHANNELS 3 Zrotation Yrotation Xrotation
														End Site
														{
															OFFSET 0.000000 0.000000 0.000000
														}
													}
												}
											}
										}
									}
								}
							}
						}
					}
				}
			}
		}
	}
	JOINT RightUpLeg
	{
		OFFSET -8.786529 0.000027 0.000018
		CHANNELS 3 Zrotation Yrotation Xrotation
		JOINT RightLeg
		{
			OFFSET -0.000085 -42.170395 -0.000081
			CHANNELS 3 Zrotation Yrotation Xrotation
			JOINT RightFoot
			{
				OFFSET 0.000051 -45.949152 0.000025
				CHANNELS 3 Zrotation Yrotation Xrotation
				JOINT RightForeFoot
				{
					OFFSET -0.000012 -4.685838 0.000005
					CHANNELS 3 Zrotation Yrotation Xrotation
					JOINT RightToeBase
					{
						OFFSET -0.000056 0.000007 18.351115
						CHANNELS 3 Zrotation Yrotation Xrotation
						JOINT RightToeBaseEnd
						{
							OFFSET 0.000039 0.000007 6.416917
							CHANNELS 3 Zrotation Yrotation Xrotation
							End Site
							{
								OFFSET 0.000000 0.000000 0.000000
							}
						}
					}
				}
			}
		}
	}
	JOINT LeftUpLeg
	{
		OFFSET 8.786566 -0.000034 -0.000019
		CHANNELS 3 Zrotation Yrotation Xrotation
		JOINT LeftLeg
		{
			OFFSET 0.000027 -42.170419 0.000046
			CHANNELS 3 Zrotation Yrotation Xrotation
			JOINT LeftFoot
			{
				OFFSET 0.000021 -45.949198 0.000014
				CHANNELS 3 Zrotation Yrotation Xrotation
				JOINT LeftForeFoot
				{
					OFFSET 0.000036 -4.685866 0.000038
					CHANNELS 3 Zrotation Yrotation Xrotation
					JOINT LeftToeBase
					{
						OFFSET 0.000045 -0.000047 18.351047
						CHANNELS 3 Zrotation Yrotation Xrotation
						JOINT LeftToeBaseEnd
						{
							OFFSET 0.000003 -0.000011 7.522032
							CHANNELS 3 Zrotation Yrotation Xrotation
							End Site
							{
								OFFSET 0.000000 0.000000 0.000000
							}
						}
					}
				}
			}
		}
	}
}
MOTION
Frames: 4
Frame Time: 0.066667
1.319564 1.452732 -3.699632 0.274126 21.373472 -3.432678 0.704008 -0.481971 2.997744 -0.328012 0.103477 -1.974335 -0.710982 1.588553 0.597206 1.126491 0.872722 7.781203 9.591891 -2.920511 2.552373 -11.758688 2.882427 5.718571 -3.994769 0.805902 2.481449 0.005031 -0.001548 -0.000366 9.988749 -10.240740 -1.811831 46.895050 6.210148 -6.704490 -179.998642 76.590759 133.000412 38.123310 -24.333261 -0.259372 22.879154 -5.139718 0.000195 10.314358 0.000422 0.000292 13.821923 0.001131 0.000534 -0.000183 0.000190 0.000700 -0.746224 -1.546384 -11.078632 23.040245 -7.419638 -2.016087 20.349373 0.298387 -1.797441 12.248593 0.113517 -1.096290 -0.001211 0.000449 0.001232 -2.460982 -3.729481 -5.385475 16.176701 -5.757858 -3.503793 28.099728 1.430120 -6.047009 20.399670 0.762340 -4.467658 -0.000115 0.001001 -0.000712 -1.937869 7.089611 -2.675247 15.335732 -5.418345 1.384592 3.065352 0.006528 0.278684 11.300799 -0.095928 1.014730 -0.000257 0.000730 0.001067 4.508543 11.124571 39.985340 -4.281825 -0.811924 -1.900375 3.902465 -2.509837 1.168157 0.000350 -0.001147 -0.000165 -15.259557 6.485985 -1.748986 -55.843559 6.499541 13.360230 179.998322 -58.461742 140.650284 -2.193475 28.740622 -0.277761 -20.600853 2.432368 0.001263 -11.754648 0.001734 0.002016 -14.668548 0.000827 -0.000208 -0.000185 -0.000069 0.000350 -0.843501 -0.022960 -10.222562 -12.562788 1.622995 -1.121231 -16.143126 -0.202216 -1.440641 -4.731934 -0.017146 -0.425198 -0.001397 -0.000350 0.001013 -0.504183 -0.536548 -10.384717 -3.311377 9.786393 -0.727360 -16.513924 -0.512494 -3.646484 -18.829945 -0.687814 -4.141102 0.001256 -0.001971 -0.000922 2.291667 -5.731433 -4.168831 -18.378185 3.897472 1.639495 -6.160286 0.031871 0.555650 -8.753131 0.062044 0.786134 0.001090 0.000498 -0.000077 -8.207133 4.626089 45.177063 0.898269 6.378003 -1.171682 0.000000 0.000000 0.000000 0.001184 -0.000398 0.001611 -3.604398 -6.653196 11.844975 0.000467 0.000729 1.289003 -0.000000 -0.000000 -0.000000 0.000000 -0.000000 -0.000000 -0.000000 0.000000 0.000000 0.000000 0.000000 0.000000 4.052449 -9.043763 9.922626 0.001049 -0.001861 -0.818971 -0.000000 0.000000 -0.000000 -0.000000 -0.000000 -0.000000 0.000000 -0.000000 0.000000 -0.000000 0.000000 0.000000 
1.384401 1.460295 -3.817823 0.250903 21.206366 -3.519162 0.746118 -0.485049 3.050125 -0.326394 0.102104 -1.969053 -0.717820 1.587253 0.626969 1.092786 0.870586 7.844095 9.549541 -3.044441 2.627618 -11.732040 2.682917 5.681803 -3.985124 0.792504 2.449232 0.004930 -0.001639 -0.000496 9.669188 -10.263756 -1.759500 46.239510 6.776206 -5.623637 -179.997665 79.674812 132.236526 38.305195 -23.910509 -0.230987 22.816071 -4.853076 0.000190 10.632528 0.000562 0.000442 14.148384 0.000974 0.000506 -0.000229 0.000370 0.000715 -0.713010 -1.546623 -11.268723 22.364887 -7.317737 -1.960196 20.149902 0.318111 -1.780644 12.220896 0.115717 -1.093651 -0.001320 0.000105 0.001095 -2.448993 -3.704474 -5.363343 15.296786 -6.083578 -3.315832 27.688856 1.433223 -5.966446 20.144817 0.756832 -4.413618 -0.000297 0.001199 -0.000604 -1.924950 7.138799 -2.900569 15.795833 -5.505325 1.426825 3.785146 -0.017227 0.344194 11.684429 -0.108583 1.048758 -0.000396 0.000810 0.000613 4.533647 11.046618 40.080509 -4.303411 -0.741028 -1.910879 3.899458 -2.519140 1.154534 0.000403 -0.000959 -0.000515 -15.205331 6.503115 -1.743611 -55.225639 6.032257 13.846620 179.998169 -58.873276 139.841660 -4.808691 29.073929 -0.370615 -20.376904 2.572201 0.001035 -11.836565 0.001911 0.002088 -14.575730 0.000844 -0.000355 0.000179 0.000195 0.000410 -0.779642 -0.049033 -10.023426 -12.219410 1.716202 -1.090854 -15.860588 -0.198166 -1.416356 -4.614983 -0.016377 -0.414601 -0.001430 -0.000389 0.000826 -0.506681 -0.519313 -10.345158 -2.716361 9.742511 -0.596667 -16.254375 -0.497610 -3.589602 -18.793804 -0.687022 -4.133676 0.001548 -0.001993 -0.001058 2.237936 -5.708769 -4.043322 -18.546944 4.004697 1.655155 -6.500341 0.034215 0.586352 -9.021641 0.066277 0.810125 0.000916 0.000243 -0.000095 -8.138854 4.609201 45.163532 0.859832 6.305095 -1.145182 0.000000 0.000000 0.000000 0.001232 -0.000685 0.001823 -3.599261 -6.552080 11.837362 -0.000280 0.001032 1.400824 -0.000000 -0.000000 -0.000000 -0.000000 -0.000000 -0.000000 -0.000000 0.000000 0.000000 0.000000 0.000000 0.000000 4.076224 -8.880934 9.955273 0.000979 -0.002155 -0.729923 -0.000000 0.000000 -0.000000 -0.000000 -0.000000 -0.000000 0.000000 -0.000000 0.000000 -0.000000 0.000000 0.000000 
1.340374 1.468903 -3.894245 0.226754 21.052931 -3.631878 0.795352 -0.492208 3.089297 -0.323778 0.097931 -1.965680 -0.717077 1.562589 0.650982 1.060733 0.860650 7.882025 9.492974 -3.162469 2.631291 -11.702536 2.475108 5.717010 -3.974308 0.778263 2.445544 0.004604 -0.001722 -0.000538 9.321422 -10.232937 -1.692219 45.642242 7.562685 -4.249253 -179.997025 82.906319 131.171432 38.358788 -23.478727 -0.201030 22.857918 -4.687428 0.000396 10.868232 0.000594 0.000342 14.270149 0.001011 0.000382 -0.000263 0.000400 0.000763 -0.718911 -1.538710 -11.283577 21.933851 -7.251348 -1.924389 19.857681 0.322072 -1.756034 12.117238 0.115087 -1.084414 -0.001420 -0.000243 0.000912 -2.440539 -3.706963 -5.359804 14.609779 -6.240133 -3.170265 27.281513 1.419529 -5.885492 19.929516 0.748986 -4.367553 -0.000508 0.001350 -0.000574 -1.892998 7.167357 -3.015392 16.341959 -5.612049 1.475476 4.393695 -0.027608 0.399411 12.016289 -0.116683 1.077875 -0.000478 0.000726 0.000304 4.528937 10.997442 40.169621 -4.316235 -0.668420 -1.913986 3.944726 -2.555318 1.158895 0.000358 -0.000660 -0.000711 -15.019340 6.458900 -1.708286 -54.358192 4.780500 14.212477 179.997833 -59.525349 138.600906 -8.468231 29.217062 -0.495828 -20.165297 2.683353 0.000759 -11.653441 0.002051 0.001937 -14.467593 0.000984 -0.000558 0.000220 0.000354 0.000562 -0.723428 -0.102631 -9.900781 -11.978020 1.853927 -1.069221 -15.343833 -0.186822 -1.371742 -4.529984 -0.015659 -0.406754 -0.001413 -0.000292 0.000559 -0.498434 -0.540088 -10.316920 -2.277714 9.750866 -0.500301 -15.880079 -0.473683 -3.508093 -18.684763 -0.680367 -4.110962 0.001715 -0.001991 -0.001228 2.225166 -5.660276 -3.934747 -18.548128 4.041276 1.655377 -6.534261 0.032919 0.589278 -9.192121 0.069036 0.825393 0.000835 0.000088 0.000024 -7.952352 4.505339 45.113552 0.822391 6.270200 -1.123042 0.000000 0.000000 0.000000 0.001190 -0.000959 0.001983 -3.580144 -6.478737 11.847018 -0.000913 0.001344 1.496563 -0.000000 -0.000000 -0.000000 -0.000000 -0.000000 -0.000000 -0.000000 0.000000 0.000000 0.000000 0.000000 0.000000 4.120977 -8.695915 10.004333 0.000864 -0.002546 -0.625717 -0.000000 0.000000 -0.000000 -0.000000 -0.000000 -0.000000 0.000000 -0.000000 0.000000 -0.000000 0.000000 0.000000 
1.249580 1.482223 -3.913790 0.217149 20.917648 -3.753866 0.836764 -0.501193 3.114700 -0.319105 0.090442 -1.964675 -0.711520 1.499562 0.660699 1.026730 0.839636 7.887427 9.453567 -3.282116 2.553798 -11.681125 2.275364 5.815741 -3.968630 0.765243 2.467816 0.004174 -0.001765 -0.000597 8.945580 -10.134696 -1.608495 45.084827 8.531074 -2.521554 -179.995529 86.199852 129.930023 38.191605 -23.078915 -0.171277 22.894768 -4.506446 0.000623 10.838331 0.000599 0.000113 14.282640 0.001202 0.000279 -0.000339 0.000457 0.000750 -0.707020 -1.522312 -11.336068 21.560072 -7.200128 -1.893438 19.420969 0.314576 -1.719194 11.956309 0.112432 -1.070077 -0.001489 -0.000547 0.000707 -2.417444 -3.683595 -5.367207 13.976821 -6.383401 -3.035344 26.724504 1.376799 -5.773791 19.616339 0.728198 -4.300897 -0.000723 0.001423 -0.000566 -1.877267 7.179917 -3.131859 16.788616 -5.647040 1.514531 4.673636 -0.029070 0.424666 12.172878 -0.119674 1.091296 -0.000575 0.000612 0.000156 4.503104 10.930485 40.205929 -4.391050 -0.622684 -1.943317 3.906291 -2.531272 1.145262 0.000343 -0.000282 -0.000733 -14.668535 6.356316 -1.642540 -53.282799 2.670561 14.269426 179.997406 -60.585045 136.816010 -12.576613 29.002434 -0.613897 -20.089882 2.702324 0.000644 -11.380249 0.002111 0.001556 -14.442021 0.001057 -0.000785 0.000040 0.000343 0.000718 -0.694010 -0.174857 -9.900115 -11.874285 1.986983 -1.059711 -14.841889 -0.176354 -1.328195 -4.514773 -0.015530 -0.405067 -0.001362 -0.000133 0.000333 -0.490003 -0.602076 -10.304946 -2.032708 9.798139 -0.446274 -15.463146 -0.446691 -3.417450 -18.559116 -0.671963 -4.084607 0.001742 -0.002052 -0.001364 2.246553 -5.601002 -3.897918 -18.559948 4.032985 1.655240 -6.451012 0.030085 0.581642 -9.280862 0.070452 0.833561 0.000745 -0.000064 0.000255 -7.713553 4.442791 45.077217 0.791486 6.303961 -1.111433 0.000000 0.000000 0.000000 0.001083 -0.001054 0.002152 -3.570106 -6.447522 11.864679 -0.001294 0.001469 1.603660 -0.000000 -0.000000 -0.000000 -0.000000 -0.000000 -0.000000 -0.000000 0.000000 0.000000 0.000000 0.000000 0.000000 4.154526 -8.494532 10.058365 0.000769 -0.003062 -0.495524 -0.000000 0.000000 -0.000000 -0.000000 -0.000000 -0.000000 0.000000 -0.000000 0.000000 -0.000000 0.000000 0.000000 
